<?xml version="1.0" encoding="utf-8"?><svg xml:space="preserve" viewBox="0 0 100 100" y="0" x="0" xmlns="http://www.w3.org/2000/svg" id="圖層_1" version="1.1" width="47px" height="47px" xmlns:xlink="http://www.w3.org/1999/xlink" style="width:100%;height:100%;background-size:initial;background-repeat-y:initial;background-repeat-x:initial;background-position-y:initial;background-position-x:initial;background-origin:initial;background-color:initial;background-clip:initial;background-attachment:initial;animation-play-state:paused" ><g class="ldl-scale" style="transform-origin:50% 50%;transform:rotate(0deg) scale(0.8, 0.8);animation-play-state:paused" ><path stroke-miterlimit="10" stroke-width="3.5" stroke="#333" fill="#e15b64" d="M82.774 50.406c0 9.761-65.547 9.761-65.547 0V14.012c0 12.241 65.547 12.241 65.547 0v36.394z" style="stroke:rgb(51, 51, 51);fill:rgb(225, 91, 100);animation-play-state:paused" ></path>
<path stroke-miterlimit="10" stroke-width="3.5" stroke="#333" fill="#f8b26a" d="M82.198 90h3.891a3.445 3.445 0 0 0 3.445-3.445v-73.11A3.445 3.445 0 0 0 86.089 10h-3.891a3.445 3.445 0 0 0-3.445 3.445v73.111A3.444 3.444 0 0 0 82.198 90z" style="stroke:rgb(51, 51, 51);fill:rgb(248, 178, 106);animation-play-state:paused" ></path>
<path stroke-miterlimit="10" stroke-width="3.5" stroke="#333" fill="#f8b26a" d="M17.802 90h-3.891a3.445 3.445 0 0 1-3.445-3.445v-73.11A3.445 3.445 0 0 1 13.911 10h3.891a3.445 3.445 0 0 1 3.445 3.445v73.111A3.444 3.444 0 0 1 17.802 90z" style="stroke:rgb(51, 51, 51);fill:rgb(248, 178, 106);animation-play-state:paused" ></path>
<metadata xmlns:d="https://loading.io/stock/" style="animation-play-state:paused" ><d:name style="animation-play-state:paused" >promote banner</d:name>
<d:tags style="animation-play-state:paused" >promote banner,stripe of cloth,band,ribbon gauze,wick,red cloth,event,goal,festival</d:tags>
<d:license style="animation-play-state:paused" >by</d:license>
<d:slug style="animation-play-state:paused" >vglm07</d:slug></metadata></g><!-- generated by https://loading.io/ --></svg>