<?xml version="1.0" encoding="utf-8"?><svg xml:space="preserve" viewBox="0 0 100 100" y="0" x="0" xmlns="http://www.w3.org/2000/svg" id="圖層_1" version="1.1" width="47px" height="47px" xmlns:xlink="http://www.w3.org/1999/xlink" style="width:100%;height:100%;background-size:initial;background-repeat-y:initial;background-repeat-x:initial;background-position-y:initial;background-position-x:initial;background-origin:initial;background-color:initial;background-clip:initial;background-attachment:initial;animation-play-state:paused" ><g class="ldl-scale" style="transform-origin:50% 50%;transform:rotate(0deg) scale(0.8, 0.8);animation-play-state:paused" ><path d="M32.3 57.4L90 54.5V22.7H25z" fill="#f5e169" style="fill:rgb(254, 203, 46);animation-play-state:paused" ></path>
<path fill="#333" d="M92.5 54.5V22.7c0-1.4-1.1-2.5-2.5-2.5H27l-1.1-5c-.1-.7-.5-1.2-1.1-1.6-.6-.4-1.2-.5-1.9-.3L9.5 16.2c-.7.1-1.2.5-1.6 1.1-.4.6-.5 1.2-.3 1.9s.5 1.2 1.1 1.6c.6.4 1.2.5 1.9.3l11.1-2.4.9 4.1c0 .3.1.6.2.8L31 62.7l-2.8 5.2c-.4.8-.4 1.7.1 2.5.4.7 1.3 1.2 2.1 1.2h53.9c1.4 0 2.5-1.1 2.5-2.5s-1.1-2.5-2.5-2.5H34.5l1.2-2.3c.3-.5.4-1.1.2-1.7l-.6-2.8L90.1 57c1.4-.1 2.4-1.2 2.4-2.5zm-5-2.4H87l-52.7 2.7-6.2-29.6h59.4v26.9z" style="fill:rgb(51, 51, 51);animation-play-state:paused" ></path>
<g style="animation-play-state:paused" ><circle fill="#e0e0e0" r="6.6" cy="78.2" cx="33.2" style="fill:rgb(224, 224, 224);animation-play-state:paused" ></circle>
<path fill="#333" d="M33.2 86.8c-4.7 0-8.6-3.9-8.6-8.6s3.9-8.6 8.6-8.6 8.6 3.9 8.6 8.6-3.9 8.6-8.6 8.6zm0-13.2c-2.5 0-4.6 2.1-4.6 4.6 0 2.5 2.1 4.6 4.6 4.6 2.5 0 4.6-2.1 4.6-4.6 0-2.6-2.1-4.6-4.6-4.6z" style="fill:rgb(51, 51, 51);animation-play-state:paused" ></path></g>
<g style="animation-play-state:paused" ><circle fill="#e0e0e0" r="6.6" cy="78.2" cx="79.3" style="fill:rgb(224, 224, 224);animation-play-state:paused" ></circle>
<path fill="#333" d="M79.3 86.8c-4.7 0-8.6-3.9-8.6-8.6s3.9-8.6 8.6-8.6 8.6 3.9 8.6 8.6-3.9 8.6-8.6 8.6zm0-13.2c-2.5 0-4.6 2.1-4.6 4.6 0 2.5 2.1 4.6 4.6 4.6 2.5 0 4.6-2.1 4.6-4.6 0-2.6-2.1-4.6-4.6-4.6z" style="fill:rgb(51, 51, 51);animation-play-state:paused" ></path></g>
<metadata xmlns:d="https://loading.io/stock/" style="animation-play-state:paused" ><d:name style="animation-play-state:paused" >cart</d:name>


<d:tags style="animation-play-state:paused" >shopping,buy,purchase,payment,checkout,cart,web application</d:tags>


<d:license style="animation-play-state:paused" >by</d:license>


<d:slug style="animation-play-state:paused" >ng7qif</d:slug></metadata></g><!-- generated by https://loading.io/ --></svg>