<?xml version="1.0" encoding="utf-8"?><svg xml:space="preserve" viewBox="0 0 100 100" y="0" x="0" xmlns="http://www.w3.org/2000/svg" id="圖層_1" version="1.1" width="47px" height="47px" xmlns:xlink="http://www.w3.org/1999/xlink" style="width:100%;height:100%;background-size:initial;background-repeat-y:initial;background-repeat-x:initial;background-position-y:initial;background-position-x:initial;background-origin:initial;background-color:initial;background-clip:initial;background-attachment:initial;animation-play-state:paused" ><g class="ldl-scale" style="transform-origin:50% 50%;transform:rotate(0deg) scale(0.8, 0.8);animation-play-state:paused" ><path d="M18 8.75h63.75V90H18z" fill="#f5e6c8" style="fill:rgb(245, 230, 200);animation-play-state:paused" ></path>
<path d="M15.831 7v86h68.338V7H15.831zm4.312 81.688V11.312h59.715v77.377H20.143z" style="animation-play-state:paused" ></path>
<circle fill="#77a4bd" r="3.711" cy="49.577" cx="28.489" id="XMLID_17_" style="fill:rgb(119, 164, 189);animation-play-state:paused" ></circle>
<path fill="#333" d="M70.806 46.448H39.25c-1.829 0-3.312 1.343-3.312 3s1.483 3 3.312 3h31.555c1.829 0 3.312-1.343 3.312-3s-1.482-3-3.311-3z" id="XMLID_18_" style="fill:rgb(51, 51, 51);animation-play-state:paused" ></path>
<circle fill="#77a4bd" r="3.711" cy="64.419" cx="28.489" id="XMLID_19_" style="fill:rgb(119, 164, 189);animation-play-state:paused" ></circle>
<path fill="#333" d="M70.806 60.799H39.25c-1.829 0-3.312 1.343-3.312 3s1.483 3 3.312 3h31.555c1.829 0 3.312-1.343 3.312-3s-1.482-3-3.311-3z" id="XMLID_20_" style="fill:rgb(51, 51, 51);animation-play-state:paused" ></path>
<circle fill="#77a4bd" r="3.711" cy="79.262" cx="28.489" id="XMLID_21_" style="fill:rgb(119, 164, 189);animation-play-state:paused" ></circle>
<path fill="#333" d="M70.806 76.253H39.25c-1.829 0-3.312 1.343-3.312 3s1.483 3 3.312 3h31.555c1.829 0 3.312-1.343 3.312-3s-1.482-3-3.311-3z" id="XMLID_22_" style="fill:rgb(51, 51, 51);animation-play-state:paused" ></path>
<path fill="#333" d="M28.091 23.143h42.715c1.829 0 3.312-1.343 3.312-3s-1.483-3-3.312-3H28.091c-1.829 0-3.312 1.343-3.312 3s1.483 3 3.312 3z" id="XMLID_23_" style="fill:rgb(51, 51, 51);animation-play-state:paused" ></path>
<circle fill="#77a4bd" r="3.711" cy="35.106" cx="28.489" id="XMLID_24_" style="fill:rgb(119, 164, 189);animation-play-state:paused" ></circle>
<path fill="#333" d="M70.806 32.097H39.25c-1.829 0-3.312 1.343-3.312 3s1.483 3 3.312 3h31.555c1.829 0 3.312-1.343 3.312-3s-1.482-3-3.311-3z" id="XMLID_25_" style="fill:rgb(51, 51, 51);animation-play-state:paused" ></path>
<metadata xmlns:d="https://loading.io/stock/" style="animation-play-state:paused" ><d:name style="animation-play-state:paused" >check list</d:name>
<d:tags style="animation-play-state:paused" >todo,item,project,issue,task,check list,business</d:tags>
<d:license style="animation-play-state:paused" >pro</d:license>
<d:slug style="animation-play-state:paused" >20pfeu</d:slug></metadata></g><!-- generated by https://loading.io/ --></svg>