<svg id="Layer_1" enable-background="new 0 0 512 512" height="512" viewBox="0 0 512 512" width="512" xmlns="http://www.w3.org/2000/svg"><g><g><path d="m348 108h-16c0-35.29-28.71-64-64-64s-64 28.71-64 64h-16c0-44.112 35.888-80 80-80s80 35.888 80 80z" fill="#cd3232"/></g><g><g><path d="m332 108h64c8.837 0 16 7.163 16 16v344c0 8.837-7.163 16-16 16h-96c8.837 0 16-7.163 16-16v-344c0-8.837 7.163-16 16-16z" fill="#32283c"/></g><g><path d="m300 108h-256c-8.837 0-16 7.163-16 16v344c0 8.837 7.163 16 16 16h256c8.837 0 16-7.163 16-16v-344c0-8.837-7.163-16-16-16z" fill="#463c4b"/></g></g><g><circle cx="100" cy="164" fill="#32283c" r="24"/></g><g><circle cx="244" cy="164" fill="#32283c" r="24"/></g><g><path d="m244 172c-4.418 0-8-3.582-8-8v-56c0-35.29-28.71-64-64-64s-64 28.71-64 64v56c0 4.418-3.582 8-8 8s-8-3.582-8-8v-56c0-44.112 35.888-80 80-80s80 35.888 80 80v56c0 4.418-3.582 8-8 8z" fill="#ff4646"/></g><g><g><path d="m204 412h248c17.673 0 32-14.327 32-32v-128c0-17.673-14.327-32-32-32h-248c-17.673 0-32 14.327-32 32v128c0 17.673 14.327 32 32 32z" fill="#cd3232"/></g><g><path d="m204 412h224c17.673 0 32-14.327 32-32v-128c0-17.673-14.327-32-32-32h-224c-17.673 0-32 14.327-32 32v128c0 17.673 14.327 32 32 32z" fill="#ff4646"/></g><g><path d="m172 252h288v32h-288z" fill="#32283c"/></g><g><path d="m268 332h-48c-8.837 0-16 7.163-16 16v16c0 8.837 7.163 16 16 16h48c8.837 0 16-7.163 16-16v-16c0-8.837-7.163-16-16-16z" fill="#e6e6eb"/></g></g><g><path d="m460 252h24v32h-24z" fill="#23192d"/></g></g></svg>