<svg height="512" viewBox="0 0 128 128" width="512" xmlns="http://www.w3.org/2000/svg"><g id="Circle_Grid" data-name="Circle Grid"><circle cx="64" cy="64" fill="#3b5059" r="64"/></g><g id="icon"><path d="m71.68 27.661h-15.4a1.88 1.88 0 0 0 -1.88 1.879v4.681h19.159v-4.681a1.879 1.879 0 0 0 -1.879-1.879z" fill="#e1e6e9"/><path d="m84.4 42.008h-40.842a3.737 3.737 0 0 0 -3.732 3.936l2.545 47.834a3.739 3.739 0 0 0 3.733 3.54h35.749a3.737 3.737 0 0 0 3.732-3.54l2.546-47.834a3.738 3.738 0 0 0 -3.731-3.936z" fill="#e1e6e9"/><g fill="#d5d6db"><path d="m89.119 32.939h-50.281a2.455 2.455 0 0 0 -2.454 2.455v9.048h55.189v-9.048a2.455 2.455 0 0 0 -2.454-2.455z"/><path d="m52.995 49.197h4.171v39.751h-4.171z"/><path d="m61.893 49.197h4.171v39.751h-4.171z"/><path d="m70.791 49.197h4.171v39.751h-4.171z"/></g></g></svg>