<?xml version="1.0" encoding="utf-8"?><svg xml:space="preserve" viewBox="0 0 100 100" y="0" x="0" xmlns="http://www.w3.org/2000/svg" id="圖層_1" version="1.1" width="47px" height="47px" xmlns:xlink="http://www.w3.org/1999/xlink" style="width:100%;height:100%;background-size:initial;background-repeat-y:initial;background-repeat-x:initial;background-position-y:initial;background-position-x:initial;background-origin:initial;background-color:initial;background-clip:initial;background-attachment:initial;animation-play-state:paused" ><g class="ldl-scale" style="transform-origin:50% 50%;transform:rotate(0deg) scale(0.8, 0.8);animation-play-state:paused" ><path fill="#f8b26a" d="M88.4 45.9c1.4-1.4 1.9-3.4 1.3-5.3-.6-1.9-2.2-3.3-4.2-3.5l-20.6-3c-.5-.1-.9-.4-1.1-.8l-9.2-18.7c-.9-1.8-2.7-2.9-4.7-2.9s-3.8 1.1-4.7 2.9L36 33.3c-.2.4-.6.7-1.1.8l-20.6 3c-2 .3-3.6 1.6-4.2 3.5-.6 1.9-.1 3.9 1.3 5.3l14.9 14.5c.3.3.5.8.4 1.2l-3.5 20.5c-.3 2 .5 3.9 2.1 5.1.9.7 2 1 3.1 1 .8 0 1.7-.2 2.4-.6L49.3 78c.2-.1.4-.2.7-.2.2 0 .5.1.7.2l18.4 9.7c.8.4 1.6.6 2.4.6 1.1 0 2.1-.3 3.1-1 1.6-1.2 2.4-3.1 2.1-5.1l-3.5-20.5c-.1-.5.1-.9.4-1.2l14.8-14.6zm-19 16.4l3.5 20.5c.1.8-.3 1.2-.6 1.4s-.8.5-1.5.1l-18.4-9.7c-.7-.4-1.6-.6-2.4-.6s-1.7.2-2.4.6l-18.4 9.7c-.7.4-1.3 0-1.5-.1-.2-.2-.7-.6-.6-1.4l3.5-20.5c.3-1.7-.3-3.4-1.5-4.6L14.2 43.2c-.6-.5-.4-1.2-.4-1.4.1-.2.4-.8 1.1-1l20.6-3a4.9 4.9 0 0 0 3.9-2.9l9.2-18.7c.3-.7 1-.8 1.3-.8.3 0 .9.1 1.3.8L60.5 35c.8 1.5 2.2 2.6 3.9 2.9l20.6 3c.8.1 1.1.7 1.1 1 .1.2.2.9-.4 1.4L70.9 57.7c-1.3 1.2-1.8 2.9-1.5 4.6z" style="fill:rgb(10, 10, 10);animation-play-state:paused" ></path>
<metadata xmlns:d="https://loading.io/stock/" style="animation-play-state:paused" ><d:name style="animation-play-state:paused" >empty star</d:name>


<d:tags style="animation-play-state:paused" >twinkling,planet,favorite,like,bookmark,score,rank,empty star,web application</d:tags>


<d:license style="animation-play-state:paused" >by</d:license>


<d:slug style="animation-play-state:paused" >z0cgyq</d:slug></metadata></g><!-- generated by https://loading.io/ --></svg>