<?xml version="1.0" encoding="utf-8"?><svg xml:space="preserve" viewBox="0 0 100 100" y="0" x="0" xmlns="http://www.w3.org/2000/svg" id="Layer_1" version="1.1" width="47px" height="47px" xmlns:xlink="http://www.w3.org/1999/xlink" style="width:100%;height:100%;background-size:initial;background-repeat-y:initial;background-repeat-x:initial;background-position-y:initial;background-position-x:initial;background-origin:initial;background-color:initial;background-clip:initial;background-attachment:initial;animation-play-state:paused" ><g class="ldl-scale" style="transform-origin:50% 50%;transform:rotate(0deg) scale(0.8, 0.8);animation-play-state:paused" ><path fill="#d65a62" d="M81.1 77.5C73.7 85 63.6 88.9 53.5 88.9c-5.6 0-11.2-1.2-16.5-3.7-4.1-1.9-7.8-4.5-11-7.7l7.7-7.7c2.3 2.3 5 4.2 7.9 5.6 10.7 5 23.4 2.8 31.8-5.6 11-11 11-28.8 0-39.7-11-11-28.8-11-39.7 0-3.4 3.4-5.8 7.5-7.1 12.1l7.7 1.1-16.6 21.3-10.2-25 8.2 1.1c1.7-6.9 5.2-13.2 10.3-18.2 15.2-15.2 39.9-15.2 55.1 0 15.2 15.1 15.2 39.9 0 55z" style="fill:rgb(20, 126, 251);animation-play-state:paused" ></path>
<path d="M60.1 33.5h-7.2v21H41.3v7.3h18.8z" fill="#333" style="fill:rgb(51, 51, 51);animation-play-state:paused" ></path>
<metadata xmlns:d="https://loading.io/stock/" style="animation-play-state:paused" ><d:name style="animation-play-state:paused" >history</d:name>


<d:tags style="animation-play-state:paused" >revision,roll back,log,archive,undo,redo,rotate,arrow,time,history,web application</d:tags>


<d:license style="animation-play-state:paused" >by</d:license>


<d:slug style="animation-play-state:paused" >gzjh54</d:slug></metadata></g><!-- generated by https://loading.io/ --></svg>