<?xml version="1.0" encoding="utf-8"?><svg xml:space="preserve" viewBox="0 0 100 100" y="0" x="0" xmlns="http://www.w3.org/2000/svg" id="圖層_1" version="1.1" width="47px" height="47px" xmlns:xlink="http://www.w3.org/1999/xlink" style="width:100%;height:100%;background-size:initial;background-repeat-y:initial;background-repeat-x:initial;background-position-y:initial;background-position-x:initial;background-origin:initial;background-color:initial;background-clip:initial;background-attachment:initial;animation-play-state:paused" ><g class="ldl-scale" style="transform-origin:50% 50%;transform:rotate(0deg) scale(0.8, 0.8);animation-play-state:paused" ><path fill="#66503a" d="M77.47 90H22.53a3.203 3.203 0 0 1-3.203-3.203V41.759h61.345v45.039A3.201 3.201 0 0 1 77.47 90z" style="fill:rgb(102, 80, 58);animation-play-state:paused" ></path>
<path fill="#f8b26a" d="M77.859 21.733H22.141a4.041 4.041 0 0 0-3.79 2.639l-8.017 28.417c-.918 2.639.919 5.442 3.565 5.442h72.2c2.647 0 4.484-2.803 3.565-5.442l-8.017-28.417a4.037 4.037 0 0 0-3.788-2.639z" style="fill:rgb(248, 178, 106);animation-play-state:paused" ></path>
<path d="M52.057 67.995h17.892V90H52.057z" fill="#333" style="fill:rgb(51, 51, 51);animation-play-state:paused" ></path>
<path fill="#66503a" d="M78.034 21.946H21.966a2.639 2.639 0 0 1-2.639-2.639v-.773a2.639 2.639 0 0 1 2.639-2.639h56.068a2.639 2.639 0 0 1 2.639 2.639v.773a2.64 2.64 0 0 1-2.639 2.639z" style="fill:rgb(102, 80, 58);animation-play-state:paused" ></path>
<path fill="#ec6551" d="M40.371 38.581h-11.59a2.05 2.05 0 0 1-2.049-2.128l.851-22.32c0-2.383 1.749-4.132 3.907-4.132h6.17a3.907 3.907 0 0 1 3.907 3.907l.852 22.546a2.049 2.049 0 0 1-2.048 2.127z" style="fill:rgb(236, 101, 81);animation-play-state:paused" ></path>
<metadata xmlns:d="https://loading.io/stock/" style="animation-play-state:paused" ><d:name style="animation-play-state:paused" >house</d:name>
<d:tags style="animation-play-state:paused" >house,home,building,farm,stable,pasture,cottage,band,hay,granary,ancient,funky</d:tags>
<d:license style="animation-play-state:paused" >by</d:license>
<d:slug style="animation-play-state:paused" >z4qxps</d:slug></metadata></g><!-- generated by https://loading.io/ --></svg>