<?xml version="1.0" encoding="iso-8859-1"?>
<!-- Generator: Adobe Illustrator 19.0.0, SVG Export Plug-In . SVG Version: 6.00 Build 0)  -->
<svg version="1.1" id="Capa_1" xmlns="http://www.w3.org/2000/svg" xmlns:xlink="http://www.w3.org/1999/xlink" x="0px" y="0px"
	 viewBox="0 0 464.009 464.009" style="enable-background:new 0 0 464.009 464.009;" xml:space="preserve">
<path style="fill:#D32144;" d="M219.2,360.004l12.8-32l24,24l-40,16L219.2,360.004z"/>
<g>
	<path style="fill:#D3D3D3;" d="M352,256.004l-64,64v-48l40-40L352,256.004z"/>
	<path style="fill:#D3D3D3;" d="M288,272.004v48l-32,32v-48L288,272.004z"/>
	<path style="fill:#D3D3D3;" d="M256,304.004v48l-24-24L256,304.004z"/>
</g>
<g>
	<path style="fill:#5B5B5B;" d="M328.009,232.007l24.002-24.002l24.002,24.002l-24.002,24.002L328.009,232.007z"/>
	<path style="fill:#5B5B5B;" d="M352.008,208.004l87.998-87.998l24.002,24.002l-87.998,87.998L352.008,208.004z"/>
</g>
<path style="fill:#3AA2EB;" d="M124.72,357.364c-9.388-6.23-11.947-18.89-5.718-28.278c6.23-9.388,18.89-11.947,28.278-5.718
	s11.947,18.89,5.718,28.278c-1.505,2.268-3.449,4.212-5.718,5.718l-7.44,5.12c-1.28,0.88-2.56,1.68-3.84,2.4
	c-1.28-0.72-2.56-1.52-3.84-2.4L124.72,357.364z"/>
<path style="fill:#E92A40;" d="M128,164.004v12H72v-12c0-15.464,12.536-28,28-28l0,0C115.433,136.079,127.926,148.571,128,164.004z"
	/>
<circle style="fill:#FFDFC4;" cx="100" cy="100.004" r="28"/>
<path style="fill:#3AA2EB;" d="M136,364.884c1.28-0.72,2.56-1.52,3.84-2.4l7.44-5.12c9.366-6.23,11.909-18.873,5.679-28.239
	c-6.23-9.366-18.873-11.909-28.239-5.679s-11.909,18.873-5.679,28.239c1.497,2.251,3.428,4.182,5.679,5.679l7.44,5.12
	C133.44,363.364,134.72,364.164,136,364.884z M100,128.004c15.464,0,28-12.536,28-28s-12.536-28-28-28s-28,12.536-28,28
	S84.536,128.004,100,128.004z M100,136.004c-15.464,0-28,12.536-28,28l0,0v12h56v-12C127.926,148.571,115.433,136.079,100,136.004z
	 M216,368.004l40-16v64H32v-384h224v272l-24,24l-12.8,32L216,368.004z"/>
<path style="fill:#454545;" d="M288,320.004v144H0v-464h288v272l-32,32v-272H32v384h224v-64L288,320.004z"/>
<g>
	<path style="fill:#07B671;" d="M336,432.004h16v32h-16V432.004z"/>
	<path style="fill:#07B671;" d="M328,440.004h32v16h-32V440.004z"/>
</g>
<g>
	<path style="fill:#3AA2EB;" d="M328.421,13.663l11.314-11.314l11.28,11.28l-11.314,11.314L328.421,13.663z"/>
	<path style="fill:#3AA2EB;" d="M351.062,13.662l11.314-11.314l11.28,11.28l-11.314,11.314L351.062,13.662z"/>
	<path style="fill:#3AA2EB;" d="M351.063,36.327l11.314-11.314l11.28,11.28l-11.314,11.314L351.063,36.327z"/>
	<path style="fill:#3AA2EB;" d="M328.422,36.256l11.314-11.314l11.28,11.28l-11.314,11.314L328.422,36.256z"/>
</g>
<g>
	<path style="fill:#F29823;" d="M416,288.004h16v16h-16V288.004z"/>
	<path style="fill:#F29823;" d="M416,336.004h16v16h-16V336.004z"/>
	<path style="fill:#F29823;" d="M395.75,303.002l11.314-11.314l11.359,11.359l-11.314,11.314L395.75,303.002z"/>
	<path style="fill:#F29823;" d="M429.624,336.922l11.314-11.314l11.359,11.359l-11.314,11.314L429.624,336.922z"/>
	<path style="fill:#F29823;" d="M392,312.004h16v16h-16V312.004z"/>
	<path style="fill:#F29823;" d="M440,312.004h16v16h-16V312.004z"/>
	<path style="fill:#F29823;" d="M395.735,336.953l11.359-11.359l11.314,11.314l-11.359,11.359L395.735,336.953z"/>
	<path style="fill:#F29823;" d="M429.631,303.062l11.359-11.359l11.314,11.314l-11.359,11.359L429.631,303.062z"/>
</g>
<path style="fill:#BAD7EB;" d="M375.066,101.661l11.314-11.314l11.28,11.28l-11.314,11.314L375.066,101.661z"/>
<path style="fill:#8F8F8F;" d="M346.35,213.679l11.314-11.314l24.002,24.002l-11.314,11.314L346.35,213.679z"/>
<g>
	<path style="fill:#BAD7EB;" d="M160,72.004h64v16h-64V72.004z"/>
	<path style="fill:#BAD7EB;" d="M160,104.004h64v16h-64V104.004z"/>
	<path style="fill:#BAD7EB;" d="M160,136.004h64v16h-64V136.004z"/>
	<path style="fill:#BAD7EB;" d="M160,168.004h64v16h-64V168.004z"/>
	<path style="fill:#BAD7EB;" d="M64,200.004h160v16H64V200.004z"/>
	<path style="fill:#BAD7EB;" d="M64,232.004h160v16H64V232.004z"/>
	<path style="fill:#BAD7EB;" d="M64,264.004h160v16H64V264.004z"/>
	<path style="fill:#BAD7EB;" d="M176,368.004c-8.139-0.052-16.206-1.533-23.832-4.376c12.841-8.829,16.094-26.396,7.265-39.237
		c-0.997-1.45-2.128-2.804-3.377-4.043c-11.203-10.743-28.885-10.743-40.088,0c-11.079,11.003-11.14,28.904-0.137,39.982
		c1.221,1.229,2.552,2.344,3.977,3.33c-7.62,2.832-15.679,4.303-23.808,4.344v16c13.963-0.06,27.698-3.546,40-10.152
		c12.302,6.606,26.037,10.092,40,10.152h24v-16H176z M127.256,331.66c4.809-4.857,12.645-4.897,17.502-0.088
		s4.897,12.645,0.088,17.502c-0.634,0.64-1.336,1.21-2.094,1.698L136,355.42l-6.856-4.72c-3.107-2.057-5.116-5.41-5.464-9.12
		C123.304,337.902,124.62,334.253,127.256,331.66z"/>
</g>
<g>
</g>
<g>
</g>
<g>
</g>
<g>
</g>
<g>
</g>
<g>
</g>
<g>
</g>
<g>
</g>
<g>
</g>
<g>
</g>
<g>
</g>
<g>
</g>
<g>
</g>
<g>
</g>
<g>
</g>
</svg>
