<?xml version="1.0" encoding="utf-8"?><svg xml:space="preserve" viewBox="0 0 100 100" y="0" x="0" xmlns="http://www.w3.org/2000/svg" id="圖層_1" version="1.1" width="47px" height="47px" xmlns:xlink="http://www.w3.org/1999/xlink" style="width:100%;height:100%;background-size:initial;background-repeat-y:initial;background-repeat-x:initial;background-position-y:initial;background-position-x:initial;background-origin:initial;background-color:initial;background-clip:initial;background-attachment:initial;animation-play-state:paused" ><g class="ldl-scale" style="transform-origin:50% 50%;transform:rotate(0deg) scale(0.8, 0.8);animation-play-state:paused" ><path stroke-miterlimit="10" stroke="#f8b26a" stroke-linejoin="round" stroke-linecap="round" stroke-width="3.5" fill="none" d="M47.444 29.143V14.451c0-4.726 4.618-8.072 9.11-6.6l.74.243a12.975 12.975 0 0 1 8.933 12.33v14.877" style="stroke:rgb(248, 178, 106);animation-play-state:paused" ></path>
<path d="M24.507 20.934l14.959-4.388v59.432l-14.959 4.387z" stroke-miterlimit="10" stroke="#333" stroke-width="3.5" fill="#c33737" stroke-linejoin="round" style="stroke:rgb(51, 51, 51);fill:rgb(195, 55, 55);animation-play-state:paused" ></path>
<path d="M75.493 87.679L39.466 75.978V16.546l36.027 11.702z" stroke-miterlimit="10" stroke="#333" stroke-width="3.5" fill="#c33737" stroke-linejoin="round" style="stroke:rgb(51, 51, 51);fill:rgb(195, 55, 55);animation-play-state:paused" ></path>
<path d="M60.534 92.066L24.507 80.365V20.934l36.027 11.701z" stroke-miterlimit="10" stroke-width="3.5" stroke-linejoin="round" stroke="#333" fill="#e15b64" style="stroke:rgb(51, 51, 51);fill:rgb(225, 91, 100);animation-play-state:paused" ></path>
<path d="M60.534 32.635l14.959-4.387v59.431l-14.959 4.387z" stroke-miterlimit="10" stroke-width="3.5" stroke-linejoin="round" stroke="#333" fill="#f47e60" style="stroke:rgb(51, 51, 51);fill:rgb(244, 126, 96);animation-play-state:paused" ></path>
<path stroke-miterlimit="10" stroke="#f8b26a" stroke-linejoin="round" stroke-linecap="round" stroke-width="3.5" fill="none" d="M32.205 32.651V17.959c0-4.726 4.618-8.072 9.11-6.6l.74.243a12.975 12.975 0 0 1 8.933 12.33v14.877" style="stroke:rgb(248, 178, 106);animation-play-state:paused" ></path>
<metadata xmlns:d="https://loading.io/stock/" style="animation-play-state:paused" ><d:name style="animation-play-state:paused" >shopping</d:name>


<d:tags style="animation-play-state:paused" >shopping,bag,buy,purchase,cart,payment,spend,department store,mall</d:tags>


<d:license style="animation-play-state:paused" >by</d:license>


<d:slug style="animation-play-state:paused" >j0z63i</d:slug></metadata></g><!-- generated by https://loading.io/ --></svg>