<?xml version="1.0" encoding="utf-8"?><svg xml:space="preserve" viewBox="0 0 100 100" y="0" x="0" xmlns="http://www.w3.org/2000/svg" id="圖層_1" version="1.1" width="47px" height="47px" xmlns:xlink="http://www.w3.org/1999/xlink" style="width:100%;height:100%;background-size:initial;background-repeat-y:initial;background-repeat-x:initial;background-position-y:initial;background-position-x:initial;background-origin:initial;background-color:initial;background-clip:initial;background-attachment:initial;animation-play-state:paused" ><g class="ldl-scale" style="transform-origin:50% 50%;transform:rotate(0deg) scale(0.8, 0.8);animation-play-state:paused" ><path fill="#f8b26a" d="M53.1 14.4L62.8 34c.5 1 1.5 1.7 2.6 1.9L87 39c2.8.4 4 3.9 1.9 5.9L73.3 60.2c-.8.8-1.2 1.9-1 3.1L76 84.8c.5 2.8-2.5 5-5 3.7L51.6 78.3c-1-.5-2.2-.5-3.2 0L29 88.5c-2.5 1.3-5.5-.8-5-3.7l3.7-21.5c.2-1.1-.2-2.3-1-3.1L11.1 45c-2.1-2-1-5.5 1.9-6l21.6-3.1c1.1-.2 2.1-.9 2.6-1.9l9.7-19.6c1.3-2.6 4.9-2.6 6.2 0z" style="fill:rgb(252, 61, 57);animation-play-state:paused" ></path>
<metadata xmlns:d="https://loading.io/stock/" style="animation-play-state:paused" ><d:name style="animation-play-state:paused" >star</d:name>


<d:tags style="animation-play-state:paused" >twinkling,planet,favorite,like,bookmark,score,rank,star,web application</d:tags>


<d:license style="animation-play-state:paused" >by</d:license>


<d:slug style="animation-play-state:paused" >es842h</d:slug></metadata></g><!-- generated by https://loading.io/ --></svg>